<svg xmlns="http://www.w3.org/2000/svg" width="31" height="10" viewBox="0 0 31 10">
  <g fill="none" fill-rule="evenodd">
    <path fill="#111" d="M19.8144568,7.84999847 C19.2018674,9.0892977 17.9072988,9.934825 16.404,9.934825 C14.3105,9.934825 12.6065,8.288575 12.6065,6.252575 C12.6065,4.216575 14.3105,2.570325 16.404,2.570325 C18.498,2.570325 20.18775,4.216575 20.18775,6.252575 C20.18775,6.469075 20.14425,6.700075 20.0865,6.902325 C20.0865,6.902325 18.35375,6.714575 18.35375,6.700075 C18.44025,6.469075 18.4835,6.512325 18.4835,6.252575 C18.4835,5.111825 17.545,4.173325 16.404,4.173325 C15.26325,4.173325 14.325,5.111825 14.325,6.252575 C14.325,7.393575 15.26325,8.332075 16.404,8.332075 C16.9061925,8.332075 17.3752583,8.15059197 17.7365229,7.84999847 L19.8144568,7.84999847 Z"/>
    <polygon fill="#111" points="13.776 6.902 20.087 6.902 18.744 5.487 13.776 5.487"/>
    <path fill="#111" d="M7.1047,2.57025 C5.0542,2.57025 3.3792,4.2165 3.3792,6.25275 C3.3792,8.28875 5.0542,9.93475 7.1047,9.93475 C9.1552,9.93475 10.80145,8.28875 10.80145,6.25275 C10.80145,4.2165 9.1552,2.57025 7.1047,2.57025 M7.17695,8.332 C6.03595,8.332 5.09745,7.3935 5.09745,6.25275 C5.09745,5.112 6.03595,4.17325 7.17695,4.17325 C8.3177,4.17325 9.2562,5.112 9.2562,6.25275 C9.2562,7.3935 8.3177,8.332 7.17695,8.332"/>
    <polygon fill="#111" points="9.256 9.848 10.96 9.848 10.96 .101 9.256 .101"/>
    <polygon fill="#111" points="25.545 9.848 27.249 9.848 27.249 .101 25.545 .101"/>
    <polygon fill="#111" points=".159 9.848 1.863 9.848 1.863 2.657 .159 2.657"/>
    <polygon fill="#FD0202" points="29.272 9.848 30.976 9.848 30.976 8.088 29.272 8.088"/>
    <path fill="#111" d="M0,1.01075 C0,1.57375 0.4475,2.02175 1.01075,2.02175 C1.57425,2.02175 2.02175,1.57375 2.02175,1.01075 C2.02175,0.4475 1.57425,0 1.01075,0 C0.4475,0 0,0.4475 0,1.01075"/>
    <polygon fill="#111" points="21.776 9.848 23.48 9.848 23.48 2.657 21.776 2.657"/>
    <path fill="#111" d="M21.61705,1.01075 C21.61705,1.57375 22.0648,2.02175 22.62805,2.02175 C23.1908,2.02175 23.63855,1.57375 23.63855,1.01075 C23.63855,0.4475 23.1908,0 22.62805,0 C22.0648,0 21.61705,0.4475 21.61705,1.01075"/>
  </g>
</svg>
